<?xml version="1.0" encoding="utf-8"?>
<!-- Generator: Adobe Illustrator 22.0.1, SVG Export Plug-In . SVG Version: 6.00 Build 0)  -->
<svg version="1.1" id="Calque_1" xmlns="http://www.w3.org/2000/svg" xmlns:xlink="http://www.w3.org/1999/xlink" x="0px" y="0px"
	 viewBox="0 0 2105 2500" style="enable-background:new 0 0 2105 2500;" xml:space="preserve">
<style type="text/css">
	.st0{fill:#EE4323;}
	.st1{fill:#333333;}
</style>
<g>
	<g>
		<path class="st0" d="M1219.1,1018.5c0.3-0.2,0.6-0.5,0.9-0.7c99.2-51.6,164.8-141.6,164.6-244.1c-0.3-159.8-160.8-289.2-358.4-289
			c-197.6,0.3-357.6,130-357.3,289.9s160.8,289.2,358.4,289c18.5,0,36.6-1.2,54.4-3.4c9.2,32.6,51.5,101.6,246.6,60.3
			C1167.3,1109.6,1219.1,1018.5,1219.1,1018.5z M934.8,551.7c-16.1,12.8-30.8,26.6-44,41.5c-9.3-4-18.3-8.3-27-13
			C885.6,568.2,909.4,558.6,934.8,551.7z M827.4,603.9c12.5,7.4,25.7,14.2,39.4,20.2c-27.4,40.2-44.1,85.9-47.1,134.4h-82.3
			C742.4,697.7,776,643.2,827.4,603.9z M833.6,949.1c-53.5-38.6-89.1-93.1-95.7-154.3h82.2c4,49.3,22.1,95.4,51.2,135.8
			C858.2,936.1,845.6,942.3,833.6,949.1z M871.5,972.3c8-4.1,16.2-7.8,24.7-11.2c11.7,12.7,24.7,24.5,38.6,35.6
			C912.4,990.6,891.2,982.4,871.5,972.3z M1004.3,996.8c-27.4-15.6-57.2-42.3-64.8-49.9c21-5.3,42.7-8.7,64.8-10V996.8z
			 M1004.3,900.6c-32,1.7-62.7,7-91.6,15.4c-34.9-47-44.9-91.3-47.6-121.2h139.2V900.6z M1004.3,758.5H864.7
			c0.4-52.8,36.9-110.3,43.1-119.3c30.3,9.2,62.7,15,96.4,16.8V758.5z M1004.3,619.5c-24.3-1.5-48.1-5.4-71.1-11.6
			c26.2-26.9,56.8-47.9,71.1-56.4V619.5z M1316.1,758.5h-82.3c-3-48.6-19.7-94.2-47.1-134.4c13.7-6,26.9-12.7,39.4-20.2
			C1277.5,643.2,1311.1,697.7,1316.1,758.5z M1189.7,580.2c-8.7,4.7-17.7,9.1-27,13c-13.1-14.9-27.9-28.7-44-41.5
			C1144.1,558.6,1167.9,568.2,1189.7,580.2z M1049.2,551.5c14.3,8.4,52.5,34,71.1,56.4c-23,6.3-46.7,10.2-71.1,11.6V551.5z
			 M1049.2,656c33.7-1.8,66.1-7.6,96.4-16.8c6.3,9,40.1,61.3,43.1,119.3h-139.6V656z M1049.2,794.8h139.2
			c-2.7,29.9-16.1,83.4-47.6,121.2c-28.9-8.4-59.7-13.7-91.6-15.4C1049.2,900.6,1049.2,794.8,1049.2,794.8z M1049.2,996.8V937
			c22.1,1.3,43.8,4.7,64.8,10C1106.4,954.6,1076.3,981.6,1049.2,996.8z M1118.7,996.7c13.9-11.1,26.9-22.9,38.6-35.6
			c8.5,3.4,16.7,7.2,24.6,11.2C1162.4,982.4,1141.2,990.6,1118.7,996.7z M1233.5,794.8h82.2c-6.6,61.2-42.2,115.6-95.7,154.3
			c-12-6.8-24.6-13-37.6-18.5C1211.3,890.2,1229.5,844.1,1233.5,794.8z"/>
	</g>
	<g>
		<path class="st1" d="M1163.2,1468.9h36.9v46.7c-5,2.2-10.1,4-15.4,5.2c-5.3,1.2-11.1,1.8-17.4,1.8c-7.5,0-14.1-1.3-20.1-3.9
			s-10.9-6.2-15-10.7c-4.1-4.5-7.2-9.7-9.4-15.7c-2.2-6-3.3-12.3-3.3-18.9c0-7,1.2-13.5,3.5-19.5c2.4-6,5.8-11.2,10.2-15.6
			c4.4-4.4,9.8-7.9,16.1-10.4c6.3-2.5,13.5-3.8,21.4-3.8c5.2,0,9.8,0.4,13.8,1.3c4.1,0.9,7.6,2,10.5,3.3l-3,14.1
			c-2.7-0.9-5.8-1.7-9.2-2.4c-3.5-0.7-7.3-1.1-11.5-1.1c-4.9,0-9.3,0.8-13.1,2.3c-3.8,1.5-7.1,3.7-9.7,6.6c-2.6,2.9-4.6,6.4-6,10.6
			c-1.4,4.2-2.1,9-2.1,14.3c0,4.8,0.6,9.3,1.9,13.4c1.3,4.1,3.1,7.7,5.6,10.7c2.4,3,5.4,5.4,9,7.1c3.6,1.7,7.6,2.6,12.2,2.6
			c2.1,0,4.1-0.1,6.1-0.4c2-0.2,3.8-0.6,5.6-1.2v-21.5h-17.6V1468.9z"/>
		<path class="st1" d="M1235.5,1490.6c0.7,5.4,2.6,9.5,5.7,12.4c3.1,2.9,7.5,4.3,13,4.3c4,0,7.6-0.3,10.8-0.9
			c3.2-0.6,5.9-1.2,8.2-1.9l4.2,12.5c-3,1.8-6.5,3.2-10.6,4.1s-8.6,1.4-13.4,1.4c-6.1,0-11.6-0.8-16.4-2.4c-4.8-1.6-8.9-4-12.3-7
			c-3.4-3.1-5.9-6.8-7.7-11.3c-1.8-4.5-2.7-9.5-2.7-15.3c0-5.9,0.9-11.1,2.6-15.7c1.7-4.6,4.1-8.5,7.3-11.7
			c3.1-3.2,6.9-5.6,11.4-7.2c4.4-1.7,9.4-2.5,14.8-2.5c4.2,0,8.2,0.7,11.8,2c3.7,1.4,6.9,3.3,9.6,5.8c2.7,2.5,4.9,5.5,6.5,8.9
			c1.6,3.5,2.4,7.3,2.4,11.6v12.8H1235.5z M1249.2,1464c-1.8,0-3.4,0.2-4.8,0.7c-1.5,0.4-2.8,1.2-3.9,2.3c-1.1,1.1-2.1,2.5-2.9,4.3
			c-0.8,1.8-1.4,4-1.8,6.6h25.4c0-2.5-0.3-4.7-1-6.5c-0.7-1.8-1.5-3.2-2.6-4.3c-1.1-1.1-2.4-1.9-3.8-2.4
			C1252.3,1464.2,1250.8,1464,1249.2,1464z"/>
		<path class="st1" d="M1289.2,1450.9h10.2v-18.3l21-1.4v19.7h19.8v13.1h-19.8v31.8c0,3.7,0.7,6.4,2.1,7.9c1.4,1.5,3.8,2.2,7.2,2.2
			c2.1,0,4-0.1,5.8-0.4c1.8-0.3,3.4-0.6,4.7-0.8l1.7,14.6c-1,0.4-2.2,0.7-3.5,1c-1.3,0.3-2.7,0.6-4.1,0.8s-2.9,0.4-4.4,0.5
			c-1.5,0.1-3,0.2-4.4,0.2c-4.1,0-7.7-0.4-10.9-1.2c-3.2-0.8-5.9-2.1-8.2-4.1s-3.9-4.6-5.1-7.9c-1.2-3.3-1.8-7.6-1.8-12.8V1464
			h-10.9L1289.2,1450.9z"/>
		<path class="st1" d="M1395.3,1441v80.1h-21V1441h-27.1v-15.5h75.2v15.5H1395.3z"/>
		<path class="st1" d="M1444.6,1490.6c0.7,5.4,2.6,9.5,5.7,12.4c3.1,2.9,7.5,4.3,13,4.3c4,0,7.6-0.3,10.8-0.9
			c3.2-0.6,5.9-1.2,8.2-1.9l4.2,12.5c-3,1.8-6.5,3.2-10.6,4.1s-8.6,1.4-13.4,1.4c-6.1,0-11.6-0.8-16.4-2.4c-4.8-1.6-8.9-4-12.3-7
			c-3.4-3.1-5.9-6.8-7.7-11.3c-1.8-4.5-2.7-9.5-2.7-15.3c0-5.9,0.9-11.1,2.6-15.7c1.7-4.6,4.1-8.5,7.3-11.7
			c3.1-3.2,6.9-5.6,11.4-7.2c4.4-1.7,9.4-2.5,14.8-2.5c4.2,0,8.2,0.7,11.8,2c3.7,1.4,6.9,3.3,9.6,5.8c2.7,2.5,4.9,5.5,6.5,8.9
			c1.6,3.5,2.4,7.3,2.4,11.6v12.8H1444.6z M1458.4,1464c-1.8,0-3.4,0.2-4.8,0.7c-1.5,0.4-2.8,1.2-3.9,2.3c-1.1,1.1-2.1,2.5-2.9,4.3
			c-0.8,1.8-1.4,4-1.8,6.6h25.4c0-2.5-0.3-4.7-1-6.5c-0.7-1.8-1.5-3.2-2.6-4.3c-1.1-1.1-2.4-1.9-3.8-2.4
			C1461.5,1464.2,1460,1464,1458.4,1464z"/>
		<path class="st1" d="M1521.2,1521.2h-22.9l24.6-35.7l-24-34.6h22.6l12.4,20.9l12.2-20.9h22.6l-23.9,34.6l24.6,35.7h-23l-12.6-21.6
			L1521.2,1521.2z"/>
		<path class="st1" d="M1575.2,1450.9h10.2v-18.3l21-1.4v19.7h19.8v13.1h-19.8v31.8c0,3.7,0.7,6.4,2.1,7.9c1.4,1.5,3.8,2.2,7.2,2.2
			c2.1,0,4-0.1,5.8-0.4c1.8-0.3,3.4-0.6,4.7-0.8l1.7,14.6c-1,0.4-2.2,0.7-3.5,1c-1.3,0.3-2.7,0.6-4.1,0.8s-2.9,0.4-4.4,0.5
			c-1.5,0.1-3,0.2-4.4,0.2c-4.1,0-7.7-0.4-10.9-1.2c-3.2-0.8-5.9-2.1-8.2-4.1s-3.9-4.6-5.1-7.9c-1.2-3.3-1.8-7.6-1.8-12.8V1464
			h-10.9L1575.2,1450.9z"/>
	</g>
	<g>
		<path class="st0" d="M425,1293.8c1.9-12.6,5.2-24,10.2-34c4.9-10,11.1-18.5,18.6-25.5c7.5-7,16.2-12.3,26-16
			c9.8-3.7,20.5-5.6,32-5.6c7.4,0,13.6,0.6,18.8,1.9c5.2,1.2,9.5,2.7,13.1,4.3l-9.1,23.5c-3.3-1.3-7-2.4-11.3-3.1
			c-4.3-0.8-8.9-1.2-13.8-1.2c-6.3,0-12.1,1.1-17.6,3.3c-5.5,2.2-10.4,5.5-14.8,10c-4.4,4.5-8.1,10.3-11.2,17.3
			c-3.1,7-5.3,15.4-6.7,25.2c-0.4,2.9-0.7,5.8-0.9,8.5c-0.2,2.8-0.3,5.4-0.3,7.8c0,7,0.8,13.1,2.5,18.1c1.7,5,4,9.2,7.1,12.4
			c3.1,3.2,6.8,5.6,11.2,7.1c4.4,1.5,9.3,2.3,14.8,2.3c5.8,0,11.3-0.6,16.6-1.9c5.3-1.3,9.9-2.7,13.9-4.2l1.7,23.6
			c-4.6,2.2-10.2,4.1-16.6,5.6c-6.4,1.5-14.2,2.3-23.2,2.3c-9.5,0-18.1-1.5-25.8-4.6c-7.7-3.1-14.2-7.4-19.6-13.1
			c-5.4-5.7-9.5-12.6-12.4-20.7c-2.9-8.1-4.4-17.1-4.4-27.1c0-2.6,0.1-5.2,0.3-7.8C424.3,1299.3,424.6,1296.6,425,1293.8z"/>
		<path class="st0" d="M542.3,1314.9c1.4-9.6,4-18.2,8-25.7c3.9-7.5,8.8-13.8,14.7-19c5.9-5.2,12.6-9.1,20.2-11.7
			c7.6-2.7,15.7-4,24.3-4c7.5,0,14.4,1.1,20.6,3.4c6.2,2.2,11.5,5.5,15.9,9.7c4.4,4.2,7.8,9.4,10.2,15.5c2.4,6.1,3.6,13,3.6,20.6
			c0,1.8-0.1,3.6-0.2,5.5c-0.1,1.9-0.3,3.8-0.6,5.8c-1.4,9.7-4,18.3-8,25.8c-3.9,7.5-8.8,13.8-14.7,18.9c-5.9,5.1-12.6,9-20.1,11.7
			c-7.5,2.7-15.6,4-24.3,4c-7.5,0-14.4-1.1-20.6-3.3c-6.2-2.2-11.5-5.4-15.9-9.6c-4.4-4.2-7.8-9.4-10.3-15.5
			c-2.4-6.1-3.7-13-3.7-20.7c0-1.8,0.1-3.6,0.2-5.5C541.8,1318.9,542,1316.9,542.3,1314.9z M575.8,1314.9c-0.3,2-0.5,4-0.7,5.8
			c-0.2,1.9-0.2,3.6-0.2,5.2c0,4.4,0.5,8.2,1.5,11.2c1,3.1,2.4,5.5,4.2,7.4c1.8,1.9,4,3.3,6.5,4.1c2.5,0.9,5.3,1.3,8.4,1.3
			c3.6,0,7-0.6,10.2-1.9c3.3-1.2,6.2-3.3,8.8-6c2.6-2.8,4.9-6.4,6.8-10.9c1.9-4.5,3.3-9.9,4.2-16.3c0.3-2.1,0.5-4.1,0.7-5.9
			c0.2-1.9,0.2-3.6,0.2-5.2c0-4.4-0.5-8.2-1.5-11.2c-1-3.1-2.4-5.5-4.2-7.4c-1.8-1.9-4-3.3-6.6-4.1s-5.4-1.2-8.5-1.2
			c-3.6,0-7,0.6-10.2,1.9c-3.2,1.3-6.1,3.3-8.8,6.1c-2.6,2.8-4.9,6.4-6.8,10.9C578.1,1303.2,576.7,1308.6,575.8,1314.9z"/>
		<path class="st0" d="M746.3,1363.2c-2.4,1.9-4.8,3.6-7.2,5.1c-2.4,1.5-5,2.7-7.8,3.8c-2.8,1-5.8,1.8-9.1,2.4
			c-3.3,0.5-6.9,0.8-11,0.8c-6,0-11.3-1.1-16.1-3.3c-4.8-2.2-8.8-5.4-12.1-9.5c-3.3-4.1-5.9-9.1-7.7-14.9
			c-1.8-5.8-2.7-12.3-2.7-19.5c0-4.3,0.3-8.8,1-13.5c1.4-9.4,3.7-17.8,7-25.2c3.3-7.4,7.3-13.7,12.1-18.9
			c4.8-5.2,10.3-9.2,16.4-11.9c6.1-2.7,12.7-4.1,19.6-4.1c7,0,12.9,0.9,17.5,2.7c4.6,1.8,8.8,4.4,12.3,7.8l7.9-54.7h33.2L776.2,1373
			h-29L746.3,1363.2z M707.9,1314.7c-0.7,4.6-1,8.8-1,12.5c0,7.6,1.5,13.3,4.5,17.1c3,3.8,8,5.7,15,5.7c3.8,0,7.5-0.6,11-1.9
			c3.6-1.3,6.9-3,10-5.1l8.1-56.2c-2.5-2-5.3-3.7-8.4-5c-3.1-1.3-6.6-2-10.5-2c-8.4,0-14.8,3-19.4,8.9
			C712.6,1294.6,709.5,1303.3,707.9,1314.7z"/>
		<path class="st0" d="M837.3,1322.5c-0.3,8.9,1.7,15.7,6,20.4c4.3,4.7,10.9,7.1,19.7,7.1c6,0,11.7-0.5,17.1-1.5
			c5.3-1,9.9-2,13.6-3.1l3.6,20.7c-5.1,2.9-11.1,5.2-17.8,6.8c-6.8,1.6-14,2.4-21.6,2.4c-8.4,0-16-1.1-22.7-3.2
			c-6.7-2.1-12.4-5.3-17.1-9.4c-4.7-4.1-8.3-9.2-10.7-15.2c-2.5-6-3.7-12.8-3.7-20.4c0-1.8,0.1-3.6,0.2-5.5s0.3-3.8,0.6-5.8
			c1.5-10,4.1-18.8,7.9-26.4c3.8-7.6,8.6-14,14.3-19.2c5.7-5.2,12.3-9.1,19.7-11.7c7.4-2.6,15.4-4,24.1-4c5.9,0,11.4,0.9,16.5,2.8
			c5.1,1.9,9.6,4.5,13.4,8c3.8,3.4,6.8,7.6,8.9,12.4c2.1,4.8,3.2,10.3,3.2,16.3c0,1.2-0.1,2.3-0.2,3.5c-0.1,1.2-0.3,2.5-0.4,3.8
			l-3,21.1H837.3z M865.5,1278.4c-2.7,0-5.3,0.4-7.7,1.1c-2.4,0.7-4.6,2-6.7,3.8c-2.1,1.8-4,4.1-5.8,7.1c-1.7,2.9-3.2,6.6-4.5,10.9
			h40.2c0.2-1,0.3-2,0.3-2.9c0.1-0.9,0.1-1.8,0.1-2.7c0-3.1-0.4-5.8-1.2-8c-0.8-2.2-2-4-3.4-5.4c-1.5-1.4-3.2-2.4-5.1-3
			C869.9,1278.7,867.8,1278.4,865.5,1278.4z"/>
		<path class="st0" d="M917.5,1373l2.8-19.8h19.1l17.2-118.5h-19.1l2.9-19.8h71.5l-2.8,19.8h-19.3l-17.1,118.5h19.2l-2.9,19.8H917.5
			z"/>
		<path class="st0" d="M1021.8,1397.4c1.6,0.4,3.6,0.8,6,1.2c2.4,0.4,4.9,0.8,7.6,1.2c2.7,0.3,5.4,0.7,8.2,0.9
			c2.8,0.3,5.5,0.4,8.1,0.4c4.6,0,8.6-0.4,12.1-1.2c3.5-0.8,6.4-2,8.9-3.8c2.4-1.7,4.4-4,5.9-6.9c1.5-2.9,2.6-6.4,3.2-10.6l1.9-13
			c-2.2,1.5-4.4,2.8-6.6,3.9c-2.2,1.1-4.7,2.1-7.3,2.8c-2.6,0.8-5.4,1.4-8.4,1.8c-3,0.4-6.4,0.6-10,0.6c-6,0-11.3-1.1-16.1-3.3
			c-4.8-2.2-8.8-5.3-12.2-9.3c-3.4-4-6-8.9-7.8-14.7c-1.8-5.8-2.7-12.3-2.7-19.5c0-4.3,0.3-8.8,1-13.5c1.4-9.4,3.7-17.8,7-25.2
			c3.3-7.4,7.3-13.7,12.1-18.9c4.8-5.2,10.3-9.2,16.4-11.9c6.1-2.7,12.7-4.1,19.8-4.1c3.7,0,7.1,0.2,10.2,0.7
			c3.1,0.5,5.8,1.2,8.3,2.1c2.5,0.9,4.8,2.1,6.9,3.4c2.1,1.4,4.1,2.9,6,4.6l3-8.5h29.6l-17.7,121.9c-1.4,9.8-3.9,17.8-7.6,24
			c-3.7,6.2-8.3,11.1-13.9,14.7c-5.6,3.6-12,6-19.3,7.4c-7.3,1.4-15.4,2-24.1,2c-3.3,0-6.7-0.2-10.2-0.5c-3.4-0.3-6.8-0.7-9.9-1.3
			c-3.2-0.5-6.1-1.1-8.8-1.7s-4.9-1.2-6.7-1.8L1021.8,1397.4z M1047.6,1314.7c-0.4,2.2-0.6,4.4-0.8,6.4c-0.1,2-0.2,3.9-0.2,5.7
			c0,7.7,1.5,13.4,4.6,17.1c3.1,3.8,8.2,5.6,15.2,5.6c3.6,0,7.2-0.6,10.6-1.8c3.4-1.2,6.7-2.8,9.7-4.8l8.2-56.5
			c-2.5-2-5.2-3.6-8.3-4.8c-3.1-1.2-6.4-1.8-10.2-1.8c-8.4,0-14.9,3-19.6,8.9C1052.4,1294.6,1049.2,1303.3,1047.6,1314.7z"/>
		<path class="st0" d="M1154.5,1256.8h28.1l1.4,12.1c6-4.6,12.1-8.1,18.4-10.6c6.3-2.5,12.9-3.8,19.9-3.8c5.1,0,9.8,0.5,13.9,1.5
			c4.2,1,7.8,2.7,10.7,5.2c3,2.4,5.3,5.7,7,9.8c1.7,4.1,2.5,9.3,2.5,15.5c0,1.9-0.1,3.8-0.2,5.9c-0.1,2.1-0.4,4.3-0.8,6.5
			l-10.8,74.1h-33.2l10.7-74.1c0.2-1.3,0.3-2.5,0.4-3.6c0.1-1.1,0.2-2.1,0.2-3.1c0-4.6-1.1-7.9-3.3-9.6c-2.2-1.8-5.5-2.7-10-2.7
			c-4.6,0-9.2,0.9-13.5,2.6c-4.4,1.7-8.5,3.9-12.5,6.6l-12.2,84h-33.6L1154.5,1256.8z"/>
		<path class="st0" d="M1290.5,1256.8h33.3L1307,1373h-33.3L1290.5,1256.8z M1296.8,1210.1h34l-3.6,24.6h-34L1296.8,1210.1z"/>
		<path class="st0" d="M1341.6,1256.8h16.2l4.4-30.2l33.7-2.3l-4.8,32.5h31.5l-3.1,21.7h-31.5l-7.6,52.5c-0.2,1.1-0.3,2.1-0.3,3
			c-0.1,0.9-0.1,1.8-0.1,2.7c0,4.2,1,7.1,3.1,8.7c2.1,1.6,5.3,2.4,9.7,2.4c3.1,0,6.2-0.2,9.2-0.7s5.6-0.9,7.7-1.4l-0.8,24.2
			c-1.7,0.6-3.6,1.2-5.8,1.7c-2.2,0.5-4.4,0.9-6.8,1.3c-2.4,0.3-4.7,0.6-7.1,0.9c-2.4,0.2-4.7,0.3-7,0.3c-5.4,0-10.3-0.5-14.8-1.4
			c-4.4-0.9-8.2-2.6-11.3-4.9c-3.1-2.3-5.6-5.5-7.3-9.5c-1.7-4-2.6-9-2.6-15.2c0-1.8,0.1-3.7,0.2-5.7c0.1-2,0.4-4.1,0.8-6.4
			l7.6-52.5h-17.2L1341.6,1256.8z"/>
		<path class="st0" d="M1457.9,1322.5c-0.3,8.9,1.7,15.7,6,20.4c4.3,4.7,10.9,7.1,19.7,7.1c6,0,11.7-0.5,17.1-1.5
			c5.3-1,9.9-2,13.6-3.1l3.6,20.7c-5.1,2.9-11.1,5.2-17.8,6.8c-6.8,1.6-14,2.4-21.6,2.4c-8.4,0-16-1.1-22.7-3.2
			c-6.7-2.1-12.4-5.3-17.1-9.4c-4.7-4.1-8.3-9.2-10.7-15.2c-2.5-6-3.7-12.8-3.7-20.4c0-1.8,0.1-3.6,0.2-5.5s0.3-3.8,0.6-5.8
			c1.5-10,4.1-18.8,7.9-26.4c3.8-7.6,8.6-14,14.3-19.2c5.7-5.2,12.3-9.1,19.7-11.7c7.4-2.6,15.4-4,24.1-4c5.9,0,11.4,0.9,16.5,2.8
			c5.1,1.9,9.6,4.5,13.4,8c3.8,3.4,6.8,7.6,8.9,12.4c2.1,4.8,3.2,10.3,3.2,16.3c0,1.2-0.1,2.3-0.2,3.5c-0.1,1.2-0.3,2.5-0.4,3.8
			l-3,21.1H1457.9z M1486.1,1278.4c-2.7,0-5.3,0.4-7.7,1.1c-2.4,0.7-4.6,2-6.7,3.8c-2.1,1.8-4,4.1-5.8,7.1
			c-1.7,2.9-3.2,6.6-4.5,10.9h40.2c0.2-1,0.3-2,0.3-2.9c0.1-0.9,0.1-1.8,0.1-2.7c0-3.1-0.4-5.8-1.2-8c-0.8-2.2-2-4-3.4-5.4
			c-1.5-1.4-3.2-2.4-5.1-3C1490.5,1278.7,1488.4,1278.4,1486.1,1278.4z"/>
		<path class="st0" d="M1558.4,1256.8h28.1l0.9,15.9c5.4-6.7,10.8-11.4,16.3-14.1c5.4-2.7,11-4.1,16.7-4.1c1.4,0,2.9,0,4.6,0.1
			c1.7,0.1,3.3,0.2,4.6,0.3l-5.9,28.1c-1.9-0.4-3.8-0.6-5.7-0.8c-1.9-0.1-4.1-0.2-6.6-0.2c-4.4,0-8.8,1.3-13,4
			c-4.3,2.7-8.4,6.2-12.3,10.6l-11,76.2h-33.6L1558.4,1256.8z"/>
	</g>
</g>
</svg>
